<svg width="627" height="628" viewBox="0 0 627 628" fill="none" xmlns="http://www.w3.org/2000/svg">
<rect width="627" height="628" fill="#DBDBDB"/>
<path d="M146 728.393L329.937 591L371.515 646.664L187.578 784.057L146 728.393Z" fill="#D9D9D9"/>
<path d="M161 210H151C148.239 210 146 212.239 146 215V225C146 227.761 148.239 230 151 230H161C163.761 230 166 227.761 166 225V215C166 212.239 163.761 210 161 210Z" stroke="#1C1C27" stroke-width="2" stroke-linecap="round" stroke-linejoin="round"/>
<path d="M160 219.37C160.124 220.202 159.981 221.052 159.594 221.799C159.206 222.546 158.593 223.151 157.842 223.53C157.09 223.908 156.239 224.04 155.408 223.906C154.577 223.772 153.81 223.38 153.215 222.785C152.62 222.19 152.228 221.423 152.094 220.592C151.961 219.762 152.092 218.91 152.471 218.158C152.849 217.407 153.454 216.794 154.201 216.406C154.948 216.019 155.798 215.877 156.63 216C157.479 216.126 158.265 216.522 158.872 217.128C159.479 217.735 159.874 218.521 160 219.37Z" stroke="#1C1C27" stroke-width="2" stroke-linecap="round" stroke-linejoin="round"/>
<path d="M161.5 214.5H161.51" stroke="#1C1C27" stroke-width="2" stroke-linecap="round" stroke-linejoin="round"/>
<path d="M2 -0.00012207L2 641.11H643.11V-0.00012207H2Z" fill="#1C1C27"/>
<rect x="140" y="472.015" width="282.559" height="131.423" transform="rotate(-34.7394 140 472.015)" fill="#1F1F2B"/>
<path d="M376 598.554L653.75 398L741.104 518.979L463.355 719.533L376 598.554Z" fill="#1F1F2B"/>
<path d="M90.5 547.375C176.5 645.928 284.667 641.329 328 626.71V641L0 626.71V-2.05671H139.5C151.167 -11.912 182.4 -16.6425 214 43.2776C245.6 103.198 183.833 184.865 149 218.209C93.6667 286.867 4.50003 448.822 90.5 547.375Z" fill="#1F1F2B"/>
<rect x="428" y="272.517" width="215" height="100" transform="rotate(-34.7394 428 272.517)" fill="#1F1F2B"/>
<rect x="180" y="214.549" width="258.927" height="120.431" transform="rotate(-34.7394 180 214.549)" fill="#1F1F2B"/>
</svg>
